<svg width="28" height="25" viewBox="0 0 28 25" fill="none" xmlns="http://www.w3.org/2000/svg">
<g id="dashboard">
<path id="Vector" d="M13.8885 15.8666C15.2017 15.8666 16.2663 14.8021 16.2663 13.4889C16.2663 12.1757 15.2017 11.1111 13.8885 11.1111C12.5753 11.1111 11.5107 12.1757 11.5107 13.4889C11.5107 14.8021 12.5753 15.8666 13.8885 15.8666Z" stroke="#253763" stroke-width="2.5" stroke-linecap="round" stroke-linejoin="round"/>
<path id="Vector_2" d="M16.2666 11.1111L18.6444 8.73328" stroke="#253763" stroke-width="2.5" stroke-linecap="round" stroke-linejoin="round"/>
<path id="Vector_3" d="M6.49136 23C4.56027 21.4503 3.15443 19.3326 2.46866 16.9402C1.78289 14.5479 1.85115 11.9994 2.66399 9.64803C3.47682 7.29661 4.99398 5.25868 7.0052 3.81667C9.01643 2.37466 11.4221 1.59998 13.8889 1.59998C16.3557 1.59998 18.7614 2.37466 20.7726 3.81667C22.7838 5.25868 24.301 7.29661 25.1138 9.64803C25.9266 11.9994 25.9949 14.5479 25.3091 16.9402C24.6233 19.3326 23.2175 21.4503 21.2864 23H6.49136Z" stroke="#253763" stroke-width="2.5" stroke-linecap="round" stroke-linejoin="round"/>
</g>
</svg>
