<svg width="23" height="23" viewBox="0 0 23 23" fill="none" xmlns="http://www.w3.org/2000/svg">
<path id="Vector" d="M22.6429 21.1875C20.9771 18.3077 18.41 16.2427 15.4143 15.2638C16.8961 14.3816 18.0474 13.0374 18.6914 11.4376C19.3353 9.83782 19.4363 8.07086 18.9789 6.40809C18.5214 4.74532 17.5308 3.27869 16.1591 2.23343C14.7874 1.18817 13.1105 0.62207 11.386 0.62207C9.66143 0.62207 7.98456 1.18817 6.61288 2.23343C5.2412 3.27869 4.25057 4.74532 3.7931 6.40809C3.33563 8.07086 3.43663 9.83782 4.08059 11.4376C4.72454 13.0374 5.87585 14.3816 7.3577 15.2638C4.36191 16.2416 1.79488 18.3066 0.129102 21.1875C0.0680151 21.2872 0.0274965 21.398 0.00993692 21.5135C-0.00762262 21.629 -0.00186733 21.7469 0.0268632 21.8601C0.0555937 21.9734 0.106718 22.0798 0.177218 22.1729C0.247719 22.2661 0.336168 22.3442 0.437348 22.4027C0.538528 22.4611 0.650388 22.4987 0.76633 22.5132C0.882271 22.5277 0.999944 22.5189 1.11241 22.4872C1.22487 22.4555 1.32984 22.4016 1.42114 22.3286C1.51243 22.2557 1.58819 22.1652 1.64395 22.0625C3.70457 18.5013 7.34676 16.375 11.386 16.375C15.4252 16.375 19.0674 18.5013 21.128 22.0625C21.1838 22.1652 21.2595 22.2557 21.3508 22.3286C21.4421 22.4016 21.5471 22.4555 21.6595 22.4872C21.772 22.5189 21.8897 22.5277 22.0056 22.5132C22.1216 22.4987 22.2334 22.4611 22.3346 22.4027C22.4358 22.3442 22.5242 22.2661 22.5947 22.1729C22.6652 22.0798 22.7164 21.9734 22.7451 21.8601C22.7738 21.7469 22.7796 21.629 22.762 21.5135C22.7445 21.398 22.7039 21.2872 22.6429 21.1875ZM5.26098 8.50005C5.26098 7.28864 5.6202 6.10443 6.29323 5.09718C6.96625 4.08993 7.92284 3.30487 9.04204 2.84128C10.1612 2.3777 11.3928 2.2564 12.5809 2.49274C13.769 2.72907 14.8604 3.31242 15.717 4.16902C16.5736 5.02561 17.157 6.11698 17.3933 7.30512C17.6296 8.49325 17.5083 9.72478 17.0447 10.844C16.5812 11.9632 15.7961 12.9198 14.7888 13.5928C13.7816 14.2658 12.5974 14.625 11.386 14.625C9.76206 14.6233 8.20515 13.9774 7.05687 12.8292C5.90858 11.6809 5.26271 10.124 5.26098 8.50005Z" fill="#F3F3F3"/>
</svg>
